<svg width="21" height="21" viewBox="0 0 21 21" fill="none" xmlns="http://www.w3.org/2000/svg">
<path fill-rule="evenodd" clip-rule="evenodd" d="M0 10.5C0 4.70103 4.70103 0 10.5 0C16.299 0 21 4.70103 21 10.5C21 16.299 16.299 21 10.5 21C4.70103 21 0 16.299 0 10.5ZM7.42022 8.69654H5.0407V15.8461H7.42022V8.69654ZM7.57697 6.48493C7.56153 5.78392 7.06024 5.25 6.24619 5.25C5.43218 5.25 4.9 5.78392 4.9 6.48493C4.9 7.17141 5.41647 7.72069 6.2153 7.72069H6.23053C7.06024 7.72069 7.57697 7.17141 7.57697 6.48493ZM16.0017 11.7467C16.0017 9.55076 14.8278 8.52867 13.262 8.52867C11.9986 8.52867 11.433 9.22259 11.1172 9.70939V8.69676H8.73736C8.76873 9.36762 8.73736 15.8463 8.73736 15.8463H11.1172V11.8534C11.1172 11.6397 11.1326 11.4265 11.1955 11.2735C11.3675 10.8467 11.7591 10.4047 12.4165 10.4047C13.2779 10.4047 13.6222 11.0603 13.6222 12.0211V15.8461H16.0016L16.0017 11.7467Z" fill="#828282"/>
</svg>
